<?xml version="1.0" encoding="iso-8859-1"?>
<!-- Uploaded to: SVG Repo, www.svgrepo.com, Generator: SVG Repo Mixer Tools -->
<svg height="800px" width="800px" version="1.1" id="Layer_1" xmlns="http://www.w3.org/2000/svg" xmlns:xlink="http://www.w3.org/1999/xlink" 
	 viewBox="0 0 512 512" xml:space="preserve">
<path style="fill:#74757B;" d="M451.502,192.735c-1.951-4.29-7.008-6.188-11.299-4.237l-120.205,54.639l52.139-40.107
	c3.735-2.874,4.434-8.23,1.561-11.966s-8.23-4.435-11.966-1.561L256,270.834l-105.731-81.331c-3.734-2.875-9.093-2.175-11.966,1.561
	c-2.874,3.735-2.175,9.092,1.561,11.966l52.139,40.107L71.798,188.498c-4.29-1.95-9.35-0.053-11.299,4.237
	c-1.951,4.29-0.053,9.349,4.237,11.299l187.733,85.333c0.242,0.11,0.49,0.203,0.738,0.289c0.034,0.012,0.066,0.028,0.1,0.039
	c0.386,0.128,0.781,0.22,1.178,0.291c0.1,0.018,0.199,0.033,0.3,0.048c0.403,0.058,0.809,0.098,1.215,0.098s0.812-0.039,1.215-0.098
	c0.1-0.015,0.201-0.03,0.3-0.048c0.397-0.071,0.791-0.163,1.178-0.291c0.034-0.011,0.066-0.028,0.1-0.039
	c0.249-0.086,0.496-0.179,0.738-0.289l187.733-85.333C451.555,202.085,453.451,197.026,451.502,192.735z"/>
<path style="fill:#74DBC9;" d="M256,0C147.778,0,59.733,88.045,59.733,196.267c0,4.713,3.821,8.533,8.533,8.533h76.8l34.133-8.533
	l34.133,8.533h85.333l34.133-8.533l34.133,8.533h76.8c4.713,0,8.533-3.821,8.533-8.533C452.266,88.045,364.222,0,256,0z"/>
<path style="fill:#6AC8B7;" d="M85.333,196.267c0-103.921,81.189-189.22,183.467-195.838C264.566,0.155,260.302,0,256,0
	C147.778,0,59.733,88.045,59.733,196.267c0,4.713,3.821,8.533,8.533,8.533h25.6C89.154,204.8,85.333,200.979,85.333,196.267z"/>
<path style="fill:#EBEBEC;" d="M256,0c-65.874,0-119.467,88.045-119.467,196.267c0,4.713,2.325,8.533,5.195,8.533h228.544
	c2.868,0,5.195-3.821,5.195-8.533C375.466,88.045,321.874,0,256,0z"/>
<path style="fill:#74DBC9;" d="M256,0c-23.526,0-42.667,88.045-42.667,196.267c0,4.713,0.831,8.533,1.855,8.533h81.623
	c1.025,0,1.855-3.821,1.855-8.533C298.666,88.045,279.526,0,256,0z"/>
<path style="fill:#FDDD85;" d="M392.533,273.067H119.466c-4.713,0-8.533,3.821-8.533,8.533v221.867c0,4.713,3.821,8.533,8.533,8.533
	h273.067c4.713,0,8.533-3.821,8.533-8.533V281.6C401.066,276.887,397.246,273.067,392.533,273.067z"/>
<path style="fill:#FDD042;" d="M136.533,503.467V281.6c0-4.713,3.821-8.533,8.533-8.533h-25.6c-4.713,0-8.533,3.821-8.533,8.533
	v221.867c0,4.713,3.821,8.533,8.533,8.533h25.6C140.354,512,136.533,508.179,136.533,503.467z"/>
<path style="fill:#F2C127;" d="M290.133,273.067h-68.267v76.547c0,6.719,7.503,11.198,13.267,7.353L256,343.056l20.867,13.911
	c2.655,1.771,6.235,1.887,8.997,0.29c2.713-1.568,4.269-4.643,4.269-7.738V273.067z"/>
<path style="fill:#E1A527;" d="M238.933,349.614v-76.547h-17.067v76.547c0,6.719,7.503,11.198,13.267,7.353l4.805-3.203
	C239.294,352.499,238.933,351.081,238.933,349.614z"/>
<g>
	<path style="fill:#606268;" d="M210.834,471.833l-25.6-25.6c-3.332-3.332-8.735-3.332-12.067,0l-25.6,25.6
		c-3.333,3.332-3.333,8.735,0,12.067c3.332,3.332,8.735,3.332,12.067,0l11.033-11.033v22.066c0,4.713,3.821,8.533,8.533,8.533
		c4.713,0,8.533-3.821,8.533-8.533v-22.066l11.033,11.033c3.505,3.505,9.417,3.222,12.591-0.575
		C214.151,479.984,213.91,474.909,210.834,471.833z"/>
	<path style="fill:#606268;" d="M364.434,471.833l-25.6-25.6c-3.332-3.332-8.735-3.332-12.067,0l-25.6,25.6
		c-3.333,3.332-3.333,8.735,0,12.067c3.332,3.332,8.735,3.332,12.067,0l11.033-11.033v22.066c0,4.713,3.821,8.533,8.533,8.533
		c4.713,0,8.533-3.821,8.533-8.533v-22.066l11.033,11.033c3.505,3.505,9.417,3.222,12.591-0.575
		C367.751,479.984,367.51,474.909,364.434,471.833z"/>
</g>
<path style="fill:#EBEBEC;" d="M324.266,375.467H187.733c-4.713,0-8.533,3.821-8.533,8.533v34.133c0,4.713,3.821,8.533,8.533,8.533
	h136.533c4.713,0,8.533-3.821,8.533-8.533V384C332.8,379.287,328.979,375.467,324.266,375.467z"/>
<g>
	<path style="fill:#606268;" d="M324.266,332.8c-4.713,0-8.533-3.821-8.533-8.533V307.2c0-4.713,3.821-8.533,8.533-8.533
		c4.713,0,8.533,3.821,8.533,8.533v17.067C332.8,328.979,328.979,332.8,324.266,332.8z"/>
	<path style="fill:#606268;" d="M349.866,332.8c-4.713,0-8.533-3.821-8.533-8.533V307.2c0-4.713,3.821-8.533,8.533-8.533
		s8.533,3.821,8.533,8.533v17.067C358.4,328.979,354.579,332.8,349.866,332.8z"/>
	<path style="fill:#606268;" d="M187.733,332.8c-4.713,0-8.533-3.821-8.533-8.533V307.2c0-4.713,3.821-8.533,8.533-8.533
		c4.713,0,8.533,3.821,8.533,8.533v17.067C196.266,328.979,192.446,332.8,187.733,332.8z"/>
	<path style="fill:#606268;" d="M162.133,332.8c-4.713,0-8.533-3.821-8.533-8.533V307.2c0-4.713,3.821-8.533,8.533-8.533
		c4.713,0,8.533,3.821,8.533,8.533v17.067C170.666,328.979,166.846,332.8,162.133,332.8z"/>
</g>
</svg>