<svg width="218" height="29" viewBox="0 0 218 29" fill="none" xmlns="http://www.w3.org/2000/svg">
<path d="M15.9844 0.65625V4.25H4.5V19.3594H9.60938C11.776 19.3594 12.8594 18.4792 12.8594 16.7188C12.8594 14.7604 11.4948 13.7812 8.76562 13.7812H7.07812V10.1875H8.90625C14.3021 10.1875 17 12.3073 17 16.5469C17 20.849 14.625 23 9.875 23H0.34375V0.65625H15.9844ZM19.3594 17.8906C19.3594 14.6302 21.7344 13 26.4844 13C27.599 13 28.7135 13.1042 29.8281 13.3125V12.0781C29.8281 10.6094 28.7708 9.875 26.6562 9.875C24.8646 9.875 22.875 10.1354 20.6875 10.6562V7.375C22.875 6.85417 24.8646 6.59375 26.6562 6.59375C31.5312 6.59375 33.9688 8.39583 33.9688 12V23H31.5625L30.0938 21.5312C28.6667 22.5104 27.0938 23 25.375 23C21.3646 23 19.3594 21.2969 19.3594 17.8906ZM29.8281 16.125C28.7865 15.9167 27.6719 15.8125 26.4844 15.8125C24.4948 15.8125 23.5 16.4896 23.5 17.8438C23.5 19.3021 24.3333 20.0312 26 20.0312C27.375 20.0312 28.651 19.6042 29.8281 18.75V16.125ZM35.9375 19.7188C38.4062 19.7188 39.6406 18.625 39.6406 16.4375V6.59375H53.3906V23H49.25V9.875H43.7812V16.4375C43.7812 20.8125 41.1667 23 35.9375 23V19.7188ZM69.7969 6.59375V9.875H64.6406V23H60.5V9.875H55.3438V6.59375H69.7969ZM78.4531 6.59375C83.4323 6.59375 85.9219 9.13542 85.9219 14.2188C85.9219 14.8958 85.875 15.5729 85.7812 16.25H74.8906C74.8906 18.5625 76.5885 19.7188 79.9844 19.7188C81.6406 19.7188 83.2969 19.5625 84.9531 19.25V22.5312C83.5052 22.8438 81.7448 23 79.6719 23C73.724 23 70.75 20.2031 70.75 14.6094C70.75 9.26562 73.3177 6.59375 78.4531 6.59375ZM74.8906 13.375H81.8906V13.25C81.8906 10.9792 80.7448 9.84375 78.4531 9.84375C76.2656 9.84375 75.0781 11.0208 74.8906 13.375ZM93.2344 14.7969L87.0938 6.59375H91.7031L95.5312 11.7188L99.3594 6.59375H103.969L97.8438 14.7969L103.969 23H99.3594L95.5312 17.875L91.7031 23H87.0938L93.2344 14.7969ZM113.344 13.1562V16.4375H105.531V13.1562H113.344ZM128.969 22.5312C127.615 22.8438 126.208 23 124.75 23C118.917 23 116 20.1615 116 14.4844C116 9.22396 118.917 6.59375 124.75 6.59375C126.208 6.59375 127.615 6.75 128.969 7.0625V10.3438C127.615 10.0312 126.312 9.875 125.062 9.875C121.781 9.875 120.141 11.4115 120.141 14.4844C120.141 17.974 121.781 19.7188 125.062 19.7188C126.312 19.7188 127.615 19.5625 128.969 19.25V22.5312ZM138.391 6.59375C143.37 6.59375 145.859 9.13542 145.859 14.2188C145.859 14.8958 145.812 15.5729 145.719 16.25H134.828C134.828 18.5625 136.526 19.7188 139.922 19.7188C141.578 19.7188 143.234 19.5625 144.891 19.25V22.5312C143.443 22.8438 141.682 23 139.609 23C133.661 23 130.688 20.2031 130.688 14.6094C130.688 9.26562 133.255 6.59375 138.391 6.59375ZM134.828 13.375H141.828V13.25C141.828 10.9792 140.682 9.84375 138.391 9.84375C136.203 9.84375 135.016 11.0208 134.828 13.375ZM153.125 18.7188C154.26 19.2812 155.526 19.5625 156.922 19.5625C159.495 19.5625 160.781 17.8281 160.781 14.3594C160.781 11.4115 159.312 9.9375 156.375 9.9375C154.99 9.9375 153.906 10.0104 153.125 10.1562V18.7188ZM148.984 7.26562C151.161 6.81771 153.568 6.59375 156.203 6.59375C161.984 6.59375 164.875 9.19271 164.875 14.3906C164.875 20.1302 162.229 23 156.938 23C155.625 23 154.354 22.7396 153.125 22.2188V28.9375H148.984V7.26562ZM167.766 23V6.59375H177.141C180.766 6.59375 182.578 7.96354 182.578 10.7031C182.578 12.401 181.557 13.6615 179.516 14.4844C181.745 15.0365 182.859 16.3802 182.859 18.5156C182.859 21.5052 180.844 23 176.812 23H167.766ZM176.172 19.7188C177.797 19.7188 178.609 19.1302 178.609 17.9531C178.609 16.8385 177.865 16.2812 176.375 16.2812H174.656V13.4531C177.156 13.0885 178.406 12.3125 178.406 11.125C178.406 10.2917 177.948 9.875 177.031 9.875H171.906V19.7188H176.172ZM197.328 23V11.9688L189.75 23H185.609V6.59375H189.594V18.1875L197.172 6.59375H201.312V23H197.328ZM217.344 22.5312C215.99 22.8438 214.583 23 213.125 23C207.292 23 204.375 20.1615 204.375 14.4844C204.375 9.22396 207.292 6.59375 213.125 6.59375C214.583 6.59375 215.99 6.75 217.344 7.0625V10.3438C215.99 10.0312 214.688 9.875 213.438 9.875C210.156 9.875 208.516 11.4115 208.516 14.4844C208.516 17.974 210.156 19.7188 213.438 19.7188C214.688 19.7188 215.99 19.5625 217.344 19.25V22.5312Z" fill="black"/>
</svg>
