<svg width="32" height="32" viewBox="0 0 32 32" fill="none" xmlns="http://www.w3.org/2000/svg">
<path d="M23.5516 20C18.1138 20 17.235 20.206 15.5871 21.7851C13.9393 23.8724 13.9851 25.9505 14.2139 26.7286C14.9829 31.3426 18.244 31.9846 20 31.5C24.6689 31.0194 31.6747 22.9524 31.6747 21.2359C31.6747 20.2528 30.3489 20 23.5516 20Z" fill="#E46221"/>
<path d="M31.6747 21.1672C31.8807 22.7464 24 34 17.5995 31.6721C12.4863 29.208 13.9664 24.2667 15.1562 22.4269C14.1012 24.0788 15.206 28 20 29C25.9546 30.2421 31.6747 22.1971 31.6747 21.1672Z" fill="#FFA77B"/>
<path d="M11.9879 23.5516C11.9879 18.1138 11.7819 17.2349 10.2028 15.5871C8.11551 13.9393 6.03742 13.9851 5.25927 14.2139C0.645352 14.9829 0.00333327 18.244 0.48791 20C0.968527 24.6689 9.03555 31.6747 10.752 31.6747C11.7351 31.6747 11.9879 30.3489 11.9879 23.5516Z" fill="#E46221"/>
<path d="M10.8207 31.6747C9.24153 31.8807 -2.01209 24 0.315785 17.5995C2.77995 12.4863 7.72119 13.9664 9.56104 15.1562C7.90916 14.1012 3.98791 15.206 2.98791 20C1.74581 25.9546 9.7908 31.6747 10.8207 31.6747Z" fill="#FFA77B"/>
<path d="M8.12701 11.9879C13.5648 11.9879 14.4437 11.7819 16.0915 10.2028C17.7393 8.11552 17.6936 6.03742 17.4647 5.25928C16.6957 0.645358 13.4346 0.0033395 11.6786 0.487917C7.00978 0.968533 0.00396121 9.03555 0.00396106 10.752C0.00396097 11.7351 1.32971 11.9879 8.12701 11.9879Z" fill="#E46221"/>
<path d="M0.00395724 10.8207C-0.202021 9.24153 7.67863 -2.01208 14.0792 0.315791C19.1923 2.77995 17.7123 7.72119 16.5225 9.56105C17.5774 7.90916 16.4726 3.98792 11.6786 2.98792C5.72404 1.74581 0.00395733 9.79081 0.00395724 10.8207Z" fill="#FFA77B"/>
<path d="M20 8.127C20 13.5648 20.206 14.4437 21.7852 16.0915C23.8724 17.7393 25.9505 17.6936 26.7286 17.4647C31.3426 16.6957 31.9846 13.4346 31.5 11.6786C31.0194 7.00978 22.9524 0.00395867 21.2359 0.00395874C20.2528 0.00395879 20 1.32971 20 8.127Z" fill="#E46221"/>
<path d="M21.1672 0.00395493C22.7464 -0.202024 34 7.67863 31.6721 14.0792C29.208 19.1923 24.2667 17.7123 22.4269 16.5225C24.0788 17.5774 28 16.4726 29 11.6786C30.2421 5.72403 22.1971 0.00395489 21.1672 0.00395493Z" fill="#FFA77B"/>
</svg>
